<svg id="레이어_1" data-name="레이어 1" xmlns="http://www.w3.org/2000/svg" viewBox="0 0 100 384.29"><defs><style>.cls-1{fill:none;}.cls-2,.cls-3{fill:#fff8e0;}.cls-3{fill-rule:evenodd;}.cls-4{fill:#fff6d5;}</style></defs><rect class="cls-1" width="100" height="100"/><g id="지구"><path class="cls-2" d="M59.05,16.32h6.78v2.12h4.46c0,.8.06,1.48.1,2.26l2.14.11v2.1l2.28.1v2.2H77v2.24h2.31v2.3h2.23v4.42l2.27.09V41H86V59H83.88l0,0V56.71H81.53V50H79.31V43.2H77.13V40.94h2.24V38.68h2.12V34.27l-2.21-.11V32.09H74.8v2H72.52V32h-2.2V27.46H68.09V20.75H65.82V18.54H59.08v9H56.83v6.72H54.68v9h2.09v4.44H54.66c0-.74-.06-1.42-.1-2.18H52.32v-2.3H50.07V41.05H47.84v2.13H43.31V41.07H41.06v2.18H36.7v2.29h2.19v4.51h2.23v2.19h2.24v4.49h2.26v2.18h2.27V56.76h6.73V59h4.49v2.28h4.44v6.79H61.32v2.18H59.09v2.26H56.76v5.64H54.68v5.67h4.39l0,0v2.13h-18V83.8l0,0h9V81.47H47.81v-9H45.58V68H41.06V56.7H36.61V50h-4.5V47.74H29.87V43.19H27.61V41H25.38V29.82h-4.5v4.34l-2.28.13v6.64H16.44l0,0V34.24h2.11V29.77h2.29V27.48h2.24V25.26h2.23V23H27.6V20.8l2.27-.1V18.49h4.45V16.31h6.76l0,0c0,.69.06,1.38.1,2.21h2.13v2.22l-2.13.1v4.44h2.23v2.16h2.29V25.32h2.21v2.11h2.26v-6.7h4.4c0-.8.08-1.5.13-2.29h4.4V16.29Zm-4.36,4.47v4.38h2.06V20.79Z"/><path class="cls-2" d="M41.08,16.31V14.07H59v2.25l0,0H47.83v2.14H45.59V16.29H41.06Z"/><path class="cls-2" d="M16.48,59H14.2V41h2.28l0,0V59Z"/><path class="cls-2" d="M23.1,72.42H21c0-.7-.07-1.37-.11-2.16H18.64V65.78H16.48V59l0,0h2.18v6.8h2.31V70.2l2.14.1v2.15Z"/><path class="cls-2" d="M41.09,83.81H34.41c0-.78-.07-1.48-.11-2.27H29.92V79.25l0,0h4.42c0,.8.07,1.47.1,2.26h6.64v2.29Z"/><path class="cls-2" d="M83.87,59v6.83H81.6l0,0V59h2.27Z"/><path class="cls-2" d="M65.87,81.53v2.28H59.05l0,0V81.56H65.9Z"/><path class="cls-2" d="M81.6,65.78V70.2l-2.23.1v2.11H77l0,0v-2.2h2.27V65.81h2.28Z"/><path class="cls-2" d="M72.5,77v2.26H70.39c0,.8-.06,1.51-.1,2.3H65.88l0,0V79.24h4.45V77h2.17Z"/><path class="cls-2" d="M25.37,74.69H23.1V72.42l0,0h2.27v2.27Z"/><path class="cls-2" d="M77.05,72.41v2.28H74.76l0,0V72.45h2.27Z"/><path class="cls-2" d="M27.65,77H25.37V74.69l0,0h2.27V77Z"/><path class="cls-2" d="M74.77,74.69V77H72.5l0,0V74.72H74.8Z"/><path class="cls-2" d="M29.92,79.25H27.64V77l0,0h2.27v2.28Z"/></g><g id="쥐"><path class="cls-2" d="M85.24,129.26H81v-4H72.76V121H68.54v4.22h-4v4H60.28v4.22H52v-4.22H35.32v4.22h-4v4.22H23v4H19V150H14.76v4.22H19v8.26h8.26v4.22H60.46v-4.22H56.24v-4H39.72v-4.22H56.24v4.22h4.22v4H72.94v-4H68.72v-8.26h4.22v-4.05H85.42v-4.21h4v-8.27h-4v-4.39ZM77,137.52h-4V133.3h4Zm-16.7,0v4H64.5v4.22H60.28v-4.22h-4v-4ZM48,150v-4H35.5v4H31.45v-4H35.5v-4.22H48V146H52.2v4Zm12.3-29v-4.22h8.26V121Zm0,8.26h-4V121h4.22v8.26Zm-16.52,54V179H48v4.22ZM39.54,179v-4.22h4V179ZM18.8,174.79v-4H39.54v4Zm-4-4v-4.22H19v4.22ZM10.54,154h4.22v12.48H10.54Z"/></g><path id="사람" class="cls-3" d="M42.78,213.89H57.22v14.44H42.78ZM31.94,231.94H68.06v7.23H60.83v46.94H53.61V264.44H46.39v21.67H39.17V239.17H31.94Zm-7.22,14.45h7.22v-7.22H24.72Zm0,0v7.22H17.5v-7.22Zm50.56,0H68.06v-7.22h7.22Zm0,0H82.5v7.22H75.28Z"/><path id="개구리" class="cls-4" d="M79.23,336.52H73.92V325.91h-5.3V320.6h5.3v-5.3h5.31v5.3h5.31v5.31H79.23ZM68.62,373.67V379h5.3v5.31h5.31V379h5.31v-5.31H79.23v-5.3H73.92v5.3Zm-5.31-31.84H73.92v-5.31H63.31v-5.3H58v5.3H52.69v-5.3H58v-5.31H42.08v5.31h5.31v5.3H42.08v-5.3H36.76v5.3H26.15v5.31H36.76v15.92h-5.3v5.31H26.15v5.31H42.07v5.3h5.32V379h5.3v-5.31H58v-5.3H73.92v-5.31h-5.3v-5.31H63.31V341.83ZM20.84,373.67h-5.3V379h5.3v5.31h5.31V379h5.32v-5.31H26.15v-5.3H20.84Zm5.31-47.76h5.31V320.6H26.15v-5.3H20.84v5.3h-5.3v5.31h5.3v10.61h5.31Z"/></svg>