<svg width="144" height="160" viewBox="0 0 144 160" fill="none" xmlns="http://www.w3.org/2000/svg">
<path d="M116.855 151.012H107.867V160H116.855V151.012Z" fill="#EAE4CE"/>
<path d="M116.855 151.012H107.867V160H116.855V151.012Z" fill="#EAE4CE"/>
<path d="M107.865 151.012H98.8765V160H107.865V151.012Z" fill="#EAE4CE"/>
<path d="M107.865 151.012H98.8765V160H107.865V151.012Z" fill="#EAE4CE"/>
<path d="M98.877 151.012H89.8882V160H98.877V151.012Z" fill="#EAE4CE"/>
<path d="M89.8867 151.012H80.898V160H89.8867V151.012Z" fill="#EAE4CE"/>
<path d="M80.8984 151.012H71.9097V160H80.8984V151.012Z" fill="#EAE4CE"/>
<path d="M71.9102 151.012H62.9214V160H71.9102V151.012Z" fill="#EAE4CE"/>
<path d="M62.9219 151.012H53.9331V160H62.9219V151.012Z" fill="#EAE4CE"/>
<path d="M53.9336 151.012H44.9448V160H53.9336V151.012Z" fill="#EAE4CE"/>
<path d="M44.9453 151.012H35.9565V160H44.9453V151.012Z" fill="#EAE4CE"/>
<path d="M35.9551 151.012H26.9663V160H35.9551V151.012Z" fill="#EAE4CE"/>
<path d="M26.9668 151.012H17.978V160H26.9668V151.012Z" fill="#EAE4CE"/>
<path d="M17.9766 151.012H8.9878V160H17.9766V151.012Z" fill="#EAE4CE"/>
<path d="M8.98828 142.022H-0.000482559V151.011H8.98828V142.022Z" fill="#EAE4CE"/>
<path d="M17.9766 133.033H8.9878V142.022H17.9766V133.033Z" fill="#EAE4CE"/>
<path d="M17.9766 124.045H8.9878V133.034H17.9766V124.045Z" fill="#EAE4CE"/>
<path d="M26.9668 115.506H17.978V124.495H26.9668V115.506Z" fill="#EAE4CE"/>
<path d="M17.9766 106.518H8.9878V115.506H17.9766V106.518Z" fill="#EAE4CE"/>
<path d="M17.9766 97.5283H8.9878V106.517H17.9766V97.5283Z" fill="#EAE4CE"/>
<path d="M8.98828 88.5391H-0.000482559V97.5278H8.98828V88.5391Z" fill="#EAE4CE"/>
<path d="M8.98828 79.5508H-0.000482559V88.5395H8.98828V79.5508Z" fill="#EAE4CE"/>
<path d="M8.98828 70.5625H-0.000482559V79.5513H8.98828V70.5625Z" fill="#EAE4CE"/>
<path d="M17.9766 62.2471H8.9878V71.2358H17.9766V62.2471Z" fill="#EAE4CE"/>
<path d="M17.9766 53.2578H8.9878V62.2466H17.9766V53.2578Z" fill="#EAE4CE"/>
<path d="M17.9766 44.2695H8.9878V53.2583H17.9766V44.2695Z" fill="#EAE4CE"/>
<path d="M26.9668 35.2812H17.978V44.27H26.9668V35.2812Z" fill="#EAE4CE"/>
<path d="M35.9551 26.292H26.9663V35.2808H35.9551V26.292Z" fill="#EAE4CE"/>
<path d="M44.9453 17.3027H35.9565V26.2915H44.9453V17.3027Z" fill="#EAE4CE"/>
<path d="M53.9336 17.3027H44.9448V26.2915H53.9336V17.3027Z" fill="#EAE4CE"/>
<path d="M62.9219 8.31445H53.9331V17.3032H62.9219V8.31445Z" fill="#EAE4CE"/>
<path d="M71.9102 0H62.9214V8.98876H71.9102V0Z" fill="#EAE4CE"/>
<path d="M49.4375 55.5059H40.4487V64.4946H49.4375V55.5059Z" fill="#EAE4CE"/>
<path d="M33.707 55.5059H24.7183V64.4946H33.707V55.5059Z" fill="#EAE4CE"/>
<path d="M49.4375 64.4941H40.4487V73.4829H49.4375V64.4941Z" fill="#EAE4CE"/>
<path d="M33.707 64.4941H24.7183V73.4829H33.707V64.4941Z" fill="#EAE4CE"/>
<path d="M49.4375 73.4824H40.4487V82.4712H49.4375V73.4824Z" fill="#EAE4CE"/>
<path d="M33.707 73.4824H24.7183V82.4712H33.707V73.4824Z" fill="#EAE4CE"/>
<path d="M49.4375 82.4717H40.4487V91.4604H49.4375V82.4717Z" fill="#EAE4CE"/>
<path d="M74.1562 95.9551H65.1675V104.944H74.1562V95.9551Z" fill="#EAE4CE"/>
<path d="M65.168 104.943H56.1792V113.932H65.168V104.943Z" fill="#EAE4CE"/>
<path d="M56.1797 104.943H47.1909V113.932H56.1797V104.943Z" fill="#EAE4CE"/>
<path d="M47.1914 104.943H38.2026V113.932H47.1914V104.943Z" fill="#EAE4CE"/>
<path d="M38.2031 104.943H29.2144V113.932H38.2031V104.943Z" fill="#EAE4CE"/>
<path d="M29.2148 95.9551H20.2261V104.944H29.2148V95.9551Z" fill="#EAE4CE"/>
<path d="M33.707 82.4717H24.7183V91.4604H33.707V82.4717Z" fill="#EAE4CE"/>
<path d="M80.8984 8.98828H71.9097V17.977H80.8984V8.98828Z" fill="#EAE4CE"/>
<path d="M89.8867 17.9775H80.898V26.9663H89.8867V17.9775Z" fill="#EAE4CE"/>
<path d="M98.877 17.9775H89.8882V26.9663H98.877V17.9775Z" fill="#EAE4CE"/>
<path d="M107.865 17.9775H98.8765V26.9663H107.865V17.9775Z" fill="#EAE4CE"/>
<path d="M116.855 26.292H107.867V35.2808H116.855V26.292Z" fill="#EAE4CE"/>
<path d="M107.865 35.2812H98.8765V44.27H107.865V35.2812Z" fill="#EAE4CE"/>
<path d="M107.865 44.2695H98.8765V53.2583H107.865V44.2695Z" fill="#EAE4CE"/>
<path d="M116.855 44.2695H107.867V53.2583H116.855V44.2695Z" fill="#EAE4CE"/>
<path d="M125.844 53.2578H116.855V62.2466H125.844V53.2578Z" fill="#EAE4CE"/>
<path d="M116.855 62.2471H107.867V71.2358H116.855V62.2471Z" fill="#EAE4CE"/>
<path d="M116.855 71.2363H107.867V80.2251H116.855V71.2363Z" fill="#EAE4CE"/>
<path d="M125.844 80.2246H116.855V89.2134H125.844V80.2246Z" fill="#EAE4CE"/>
<path d="M116.855 89.2129H107.867V98.2017H116.855V89.2129Z" fill="#EAE4CE"/>
<path d="M107.865 98.2021H98.8765V107.191H107.865V98.2021Z" fill="#EAE4CE"/>
<path d="M116.855 107.191H107.867V116.18H116.855V107.191Z" fill="#EAE4CE"/>
<path d="M116.855 116.18H107.867V125.168H116.855V116.18Z" fill="#EAE4CE"/>
<path d="M125.844 116.18H116.855V125.168H125.844V116.18Z" fill="#EAE4CE"/>
<path d="M134.832 107.191H125.843V116.18H134.832V107.191Z" fill="#EAE4CE"/>
<path d="M143.82 115.506H134.832V124.495H143.82V115.506Z" fill="#EAE4CE"/>
<path d="M143.82 124.494H134.832V133.483H143.82V124.494Z" fill="#EAE4CE"/>
<path d="M134.832 133.482H125.843V142.471H134.832V133.482Z" fill="#EAE4CE"/>
<path d="M125.844 142.472H116.855V151.46H125.844V142.472Z" fill="#EAE4CE"/>
<path d="M107.865 71.2363H98.8765V80.2251H107.865V71.2363Z" fill="#EAE4CE"/>
<path d="M98.877 44.2695H89.8882V53.2583H98.877V44.2695Z" fill="#EAE4CE"/>
</svg>
