<svg width="115" height="110" class="heart_full" viewBox="0 0 115 110" fill="none" xmlns="http://www.w3.org/2000/svg">
<style>

</style>
<rect x="52.2734" y="98.1113" width="11.0497" height="11.0738" fill="#EAE4CE"/>
<rect x="52.2734" y="87.9922" width="11.0497" height="11.0738" fill="#EAE4CE"/>
<rect x="41.8184" y="87.6572" width="11.0497" height="11.0738" fill="#EAE4CE"/>
<rect x="31.3633" y="78.0068" width="11.0497" height="11.0738" fill="#EAE4CE"/>
<rect x="20.9082" y="68.3574" width="11.0497" height="11.0738" fill="#EAE4CE"/>
<rect x="10.4551" y="58.7061" width="11.0497" height="11.0738" fill="#EAE4CE"/>
<rect y="26.5391" width="11.2587" height="32.972" fill="#EAE4CE"/>
<rect x="103.742" y="26.5391" width="11.2587" height="32.972" fill="#EAE4CE"/>
<rect x="7.23828" y="16.8887" width="11.0497" height="11.0738" fill="#EAE4CE"/>
<rect x="7.23828" y="9.65039" width="11.0497" height="11.0738" fill="#EAE4CE"/>
<rect x="16.5527" y="10.4541" width="29.6212" height="11.3258" fill="#EAE4CE"/>
<rect x="70.5684" y="9.58301" width="29.6212" height="11.3258" fill="#EAE4CE"/>
<rect x="10.4551" y="20.0381" width="94.9621" height="11.3258" fill="#EAE4CE"/>
<rect x="20.9082" y="63.5986" width="73.1818" height="11.3258" fill="#EAE4CE"/>
<rect x="31.3633" y="69.6973" width="52.2727" height="11.3258" fill="#EAE4CE"/>
<rect x="41.8184" y="77.5381" width="32.2348" height="11.3258" fill="#EAE4CE"/>
<rect width="94.0909" height="40.0758" transform="matrix(1 0 0 -1 10.4551 67.9541)" fill="#EAE4CE"/>
<rect x="16.084" width="11.0497" height="11.0738" fill="#EAE4CE"/>
<rect x="26.5391" width="11.0497" height="11.0738" fill="#EAE4CE"/>
<rect x="36.9941" width="11.0497" height="11.0738" fill="#EAE4CE"/>
<rect x="42.623" y="9.65039" width="11.0497" height="11.0738" fill="#EAE4CE"/>
<rect x="53.0762" y="19.3008" width="11.0497" height="11.0738" fill="#EAE4CE"/>
<rect x="62.7266" y="9.65039" width="11.0497" height="11.0738" fill="#EAE4CE"/>
<rect x="89.2656" width="11.0497" height="11.0738" fill="#EAE4CE"/>
<rect x="78.8105" width="11.0497" height="11.0738" fill="#EAE4CE"/>
<rect x="68.3574" width="11.0497" height="11.0738" fill="#EAE4CE"/>
<rect x="94.0918" y="58.7061" width="11.0497" height="11.0738" fill="#EAE4CE"/>
<rect x="97.3086" y="16.8887" width="11.0497" height="11.0738" fill="#EAE4CE"/>
<rect x="97.3086" y="9.65039" width="11.0497" height="11.0738" fill="#EAE4CE"/>
<rect x="73.1816" y="78.0068" width="11.0497" height="11.0738" fill="#EAE4CE"/>
<rect x="83.6367" y="68.3574" width="11.0497" height="11.0738" fill="#EAE4CE"/>
<rect x="62.7266" y="87.6572" width="11.0497" height="11.0738" fill="#EAE4CE"/>
</svg>
