
<svg xmlns="http://www.w3.org/2000/svg"  viewBox="0 0 71.8 71.85"><defs><style>
.cls-1{
    fill: none;
    stroke: #E4DEC9;
    stroke-width: 1.2;
    stroke-miterlimit:100;
stroke-dasharray: 600;
stroke-dashoffset: 0;
animation: dash 4s linear infinite;
}

@keyframes dash{
    0%{stroke-dashoffset:600;}
    100%{stroke-dashoffset:0;}
}

</style></defs><g id="레이어_2" data-name="레이어 2"><g id="레이어_1-2" data-name="레이어 1"><g id="지구"><path class="cls-1" d="M44.84,2.25h6.79V4.37h4.45c0,.8.07,1.48.11,2.26l2.13.1V8.84l2.28.1v2.19h2.21v2.24h2.31v2.31h2.23v4.41l2.28.1v6.68H71.8v18H69.67l0,0V42.63H67.33V35.92H65.1v-6.8H62.92V26.87h2.25V24.61h2.12V20.2l-2.21-.11V18H60.59v2.05H58.32V17.91h-2.2V13.39H53.89V6.68H51.62V4.47H44.87v9H42.62v6.71H40.47v9h2.09V33.6H40.45c0-.75-.06-1.42-.09-2.18H38.11v-2.3H35.87V27H33.64V29.1H29.1V27H26.85v2.18H22.5v2.29h2.19V36h2.22v2.18h2.25v4.5h2.26v2.18h2.27V42.69h6.73v2.24H44.9V47.2h4.44V54H47.11v2.19H44.88v2.25H42.56v5.65H40.47v5.67h4.39l0,0v2.12h-18V69.73l0,0h9V67.39H33.61v-9H31.37V53.93H26.85V42.63H22.4v-6.7H17.91V33.67H15.66V29.12H13.4V26.91H11.18V15.75H6.68v4.33l-2.28.14v6.64H2.24l0,0V20.17H4.37V15.7H6.66V13.41H8.91V11.18h2.23V8.92H13.4V6.73l2.26-.1V4.42h4.46V2.24h6.76l0,0c0,.69.06,1.37.1,2.2h2.12V6.64L27,6.74v4.44h2.23v2.15h2.29V11.24h2.22v2.12H36V6.65h4.39c0-.8.09-1.5.13-2.28h4.4V2.21ZM40.49,6.72V11.1h2.06V6.72Z"/><path class="cls-1" d="M26.88,2.24V0h18V2.25l0,0H33.63V4.35H31.38V2.22H26.85Z"/><path class="cls-1" d="M2.28,44.87H0v-18H2.27l0,0q0,9,0,18Z"/><path class="cls-1" d="M8.89,58.35H6.75c0-.7-.06-1.38-.1-2.16H4.44V51.71H2.28V44.87l0,0H4.43v6.8h2.3v4.42l2.14.1v2.14Z"/><path class="cls-1" d="M26.88,69.74H20.2c0-.78-.07-1.49-.11-2.27H15.71V65.18l0,0h4.43c0,.8.06,1.48.1,2.27h6.64v2.29Z"/><path class="cls-1" d="M69.67,44.88v6.83H67.4l0,0V44.9h2.27Z"/><path class="cls-1" d="M51.67,67.46v2.28H44.85l0,0V67.48H51.7Z"/><path class="cls-1" d="M67.39,51.71v4.42l-2.23.09v2.12H62.84l0,0v-2.2h2.27V51.74h2.27Z"/><path class="cls-1" d="M58.29,62.9v2.26h-2.1c0,.8-.07,1.51-.1,2.29H51.67l0,0V65.17h4.45V62.92h2.17Z"/><path class="cls-1" d="M11.16,60.62H8.89V58.35l0,0h2.27v2.28Z"/><path class="cls-1" d="M62.84,58.34v2.27H60.56l0,0V58.37h2.27Z"/><path class="cls-1" d="M13.44,62.9H11.16V60.62l0,0h2.27v2.28Z"/><path class="cls-1" d="M60.56,60.61V62.9H58.29l0,0V60.65H60.6Z"/><path class="cls-1" d="M15.71,65.18H13.44V62.9l0,0h2.27V65.2Z"/></g></g></g></svg>