<svg width="19" height="19" viewBox="0 0 19 19" fill="none" xmlns="http://www.w3.org/2000/svg">
<path d="M2.70352 16.8508V15.8603H1.68819V14.8698H0.672852V12.8812H1.68819V10.8995H2.70352V9.90204H0.672852V8.91154H5.75653V12.8812H4.7412V10.8995H3.71886V12.8812H2.70352V14.8698H8.80954V16.8508H2.70352ZM4.7412 7.92105V5.93242H5.75653V3.9508H6.77187V1.96217H7.79358V0.97168H11.8619V1.96217H12.8773V3.9508H13.8926V5.93242H14.9143V3.9508H15.9296V7.92042H10.8389V6.92992H12.8766V5.93242H11.8613V3.9508H10.8389V1.96217H8.80827V3.9508H7.79294V5.93242H6.77123V7.92105H4.7412ZM10.8402 17.8413V16.8508H9.82488V14.8698H10.8402V13.8793H11.8626V14.8698H16.9462V12.8812H15.9309V10.8995H14.9156V8.9109H16.9462V10.8995H17.9616V12.8812H18.9839V14.8698H17.9616V15.8603H16.9462V16.8508H11.8626V17.8413H10.8402ZM11.8626 13.8787V12.8812H12.8779V13.8787H11.8626ZM11.8626 18.8318V17.8413H12.8779V18.8318H11.8626Z" fill="black"/>
</svg>
