<svg width="16" height="15" viewBox="0 0 16 15" fill="none" xmlns="http://www.w3.org/2000/svg">
<path d="M0.803467 2.94175V0.953125H2.83414V2.94175H0.803467ZM0.803467 6.91137V4.93038H2.83414V6.91137H0.803467ZM0.803467 10.881V8.89936H2.83414V10.881H0.803467ZM0.803467 14.8506V12.8696H2.83414V14.8506H0.803467ZM2.83414 4.93038V2.94175H4.87181V4.93038H2.83414ZM2.83414 8.89936V6.91073H4.87181V8.89936H2.83414ZM2.83414 12.8696V10.881H4.87181V12.8696H2.83414ZM4.87181 2.94175V0.953125H6.90248V2.94175H4.87181ZM4.87181 6.91137V4.93038H6.90248V6.91137H4.87181ZM4.87181 10.881V8.89936H6.90248V10.881H4.87181ZM4.87181 14.8506V12.8696H6.90248V14.8506H4.87181ZM6.90248 4.93038V2.94175H8.94016V4.93038H6.90248ZM6.90248 8.89936V6.91073H8.94016V8.89936H6.90248ZM6.90248 12.8696V10.881H8.94016V12.8696H6.90248ZM8.94016 2.94175V0.953125H10.9708V2.94175H8.94016ZM8.94016 6.91137V4.93038H10.9708V6.91137H8.94016ZM8.94016 10.881V8.89936H10.9708V10.881H8.94016ZM8.94016 14.8506V12.8696H10.9708V14.8506H8.94016ZM10.9708 4.93038V2.94175H13.0085V4.93038H10.9708ZM10.9708 8.89936V6.91073H13.0085V8.89936H10.9708ZM10.9708 12.8696V10.881H13.0085V12.8696H10.9708ZM13.0085 2.94175V0.953125H15.0462V2.94175H13.0085ZM13.0085 6.91137V4.93038H15.0462V6.91137H13.0085ZM13.0085 10.881V8.89936H15.0462V10.881H13.0085ZM13.0085 14.8506V12.8696H15.0462V14.8506H13.0085Z" fill="black"/>
</svg>
