<svg width="1682" height="311" viewBox="0 0 1682 311" fill="none" xmlns="http://www.w3.org/2000/svg" class="title">
<style>
.title{
    stroke-linecap: butt;
    stroke-linejoin: miter;
    fill-opacity: 0;
    stroke-miterlimit: 100;
    stroke: rgb(255, 248, 224);
    stroke-opacity: 1;
    stroke-width: 2;
    stroke-dasharray: 700;
    stroke-dashoffset:0;
    animation: dash 3s linear infinite;
}


@keyframes dash{
    0%{stroke-dashoffset:700;}
    100%{fill-opacity:1
        }
}
</style>
<path d="M8.8 15.2L33.2 38.8V127.2L8.8 151.6L2.98023e-07 142.8V22.8L8.8 15.2ZM174.8 22.8V142.8L166 151.6L141.6 127.2V38.8L166 15.2L174.8 22.8ZM2.98023e-07 302.8V167.2L8.8 158.4L33.2 183.2V286.8L8.8 310.4L2.98023e-07 302.8ZM158.8 8.39999L133.6 32.4H41.2L15.6 8.39999L24 0.799989H150.8L158.8 8.39999ZM155.2 155.2L138.8 171.2H36.4L19.6 155.2L36.4 138.8H138.8L155.2 155.2ZM352.941 8.39999L327.741 32.4H235.341L209.741 8.39999L218.141 0.799989H344.941L352.941 8.39999ZM202.941 15.2L227.341 38.8V127.2L202.941 151.6L194.141 142.8V22.8L202.941 15.2ZM368.941 22.8V142.8L360.141 151.6L335.741 127.2V38.8L360.141 15.2L368.941 22.8ZM344.941 310.4H218.141L209.741 302.8L235.341 278.8H327.741L352.941 302.8L344.941 310.4ZM194.141 288.4V167.2L202.941 158.4L227.341 183.2V272.4L202.941 296L194.141 288.4ZM360.141 296L335.741 272.4V183.2L360.141 158.4L368.941 167.2V288.4L360.141 296ZM417.784 15.2L442.184 38.8V127.2L417.784 151.6L408.984 142.8V22.8L417.784 15.2ZM583.784 22.8V142.8L574.984 151.6L550.584 127.2V38.8L574.984 15.2L583.784 22.8ZM408.984 302.8V167.2L417.784 158.4L442.184 183.2V286.8L417.784 310.4L408.984 302.8ZM567.784 8.39999L542.584 32.4H450.184L424.584 8.39999L432.984 0.799989H559.784L567.784 8.39999ZM564.184 155.2L547.784 171.2H445.384L428.584 155.2L445.384 138.8H547.784L564.184 155.2ZM584.184 310L550.984 301.6L485.784 190.8L508.184 180.4L519.784 184.8L587.784 298.8L584.184 310ZM722.344 0.799989H792.744L801.144 8.39999L775.544 32.4H722.344L705.944 17.6L722.344 0.799989ZM716.344 295.6L699.944 310.4L683.144 295.6V36.8L699.944 22L716.344 36.8V295.6ZM693.544 17.6L677.144 32.4H627.944L602.344 8.39999L610.744 0.799989H677.144L693.544 17.6ZM861.716 38.8V127.2L837.316 151.6L828.516 142.8V7.99999L861.716 38.8ZM828.516 310.4V167.2L837.316 158.4L861.716 183.2V280.4L828.516 310.4ZM1002.52 8.39999L977.316 32.4H869.716L836.116 0.799989H994.516L1002.52 8.39999ZM983.716 155.2L967.316 171.2H864.916L848.116 155.2L864.916 138.8H967.316L983.716 155.2ZM1179.5 8.39999L1154.3 32.4H1061.9L1036.3 8.39999L1044.7 0.799989H1171.5L1179.5 8.39999ZM1029.5 15.2L1053.9 38.8V127.2L1029.5 151.6L1020.7 142.8V22.8L1029.5 15.2ZM1195.5 22.8V142.8L1186.7 151.6L1162.3 127.2V38.8L1186.7 15.2L1195.5 22.8ZM1171.5 310.4H1044.7L1036.3 302.8L1061.9 278.8H1154.3L1179.5 302.8L1171.5 310.4ZM1020.7 288.4V167.2L1029.5 158.4L1053.9 183.2V272.4L1029.5 296L1020.7 288.4ZM1186.7 296L1162.3 272.4V183.2L1186.7 158.4L1195.5 167.2V288.4L1186.7 296ZM1244.35 0.799989L1268.75 24.4V127.2L1244.35 151.6L1235.55 142.8V8.39999L1244.35 0.799989ZM1398.35 310.4H1259.55L1251.15 302.8L1276.75 278.8H1381.15L1406.35 302.8L1398.35 310.4ZM1235.55 288.4V167.2L1244.35 158.4L1268.75 183.2V272.4L1244.35 296L1235.55 288.4ZM1442.39 0.799989L1466.79 24.4V126.4L1442.39 150.4L1433.59 142V8.39999L1442.39 0.799989ZM1433.59 302.4V166L1442.39 157.6L1466.79 181.6V286.4L1442.39 310.4L1433.59 302.4ZM1665.44 8.39999L1640.24 32.4H1547.84L1522.24 8.39999L1530.64 0.799989H1657.44L1665.44 8.39999ZM1515.44 15.2L1539.84 38.8V127.2L1515.44 151.6L1506.64 142.8V22.8L1515.44 15.2ZM1681.44 22.8V142.8L1672.64 151.6L1648.24 127.2V38.8L1672.64 15.2L1681.44 22.8ZM1657.44 310.4H1530.64L1522.24 302.8L1547.84 278.8H1640.24L1665.44 302.8L1657.44 310.4ZM1506.64 288.4V167.2L1515.44 158.4L1539.84 183.2V272.4L1515.44 296L1506.64 288.4ZM1672.64 296L1648.24 272.4V183.2L1672.64 158.4L1681.44 167.2V288.4L1672.64 296Z" fill="#E4DEC9"/>
</svg>
